<svg width="661" height="51" viewBox="0 0 661 51" fill="none" xmlns="http://www.w3.org/2000/svg">
<path d="M401.757 35.0184C401.757 37.8387 401.054 40.659 399.413 43.0092C397.772 45.3594 395.662 47.2396 392.615 48.6498C389.568 50.0599 385.818 50.765 381.364 50.765C377.614 50.765 374.098 50.2949 370.582 49.3548C367.066 48.4147 364.253 47.0046 362.144 45.3594L369.176 36.8986C370.582 37.6037 371.988 38.0737 373.629 38.7788C376.442 39.7189 379.02 40.1889 381.599 40.1889C386.521 40.1889 389.099 38.7788 389.099 36.1936C389.099 34.7834 388.396 33.8433 386.99 33.1382C385.583 32.4332 383.239 31.7281 380.192 31.0231C376.676 30.318 373.863 29.3779 371.52 28.4378C369.176 27.4977 367.3 26.0875 365.425 24.2074C363.784 22.3272 362.847 19.5069 362.847 16.2166C362.847 13.1613 363.55 10.576 365.191 8.2258C366.832 5.87557 368.941 3.9954 371.988 2.58527C375.035 1.17513 378.786 0.470075 383.239 0.470075C386.287 0.470075 389.334 0.94012 392.146 1.64519C395.194 2.35026 397.772 3.52534 399.882 4.70046L392.615 13.3963C389.334 11.9862 386.052 11.2811 383.005 11.2811C380.427 11.2811 378.551 11.7512 377.379 12.4562C376.207 13.1613 375.504 14.3364 375.504 15.5115C375.504 16.9217 376.207 17.8617 377.614 18.3318C379.02 19.0369 381.364 19.742 384.411 20.447C387.927 21.1521 390.74 22.0922 393.084 23.0323C395.428 23.9723 397.303 25.3825 399.178 27.2627C400.819 28.9078 401.757 31.7281 401.757 35.0184ZM661 35.0184C661 37.8387 660.297 40.659 658.656 43.0092C657.015 45.3594 654.906 47.2396 651.859 48.6498C648.811 50.0599 645.061 50.765 640.607 50.765C636.857 50.765 633.341 50.2949 629.825 49.3548C626.309 48.4147 623.497 47.0046 621.387 45.3594L628.419 36.8986C629.825 37.6037 631.232 38.0737 632.872 38.7788C635.685 39.7189 638.263 40.1889 640.842 40.1889C645.764 40.1889 648.343 38.7788 648.343 36.1936C648.343 34.7834 647.639 33.8433 646.233 33.1382C644.827 32.4332 642.483 31.7281 639.435 31.0231C635.919 30.318 633.107 29.3779 630.763 28.4378C628.419 27.4977 626.544 26.0875 624.668 24.2074C623.028 22.3272 622.09 19.5069 622.09 16.2166C622.09 13.1613 622.793 10.576 624.434 8.2258C626.075 5.87557 628.184 3.9954 631.232 2.58527C634.279 1.17513 638.029 0.470075 642.483 0.470075C645.53 0.470075 648.577 0.94012 651.39 1.64519C654.437 2.35026 657.015 3.52534 659.125 4.70046L651.859 13.3963C648.577 11.9862 645.295 11.2811 642.248 11.2811C639.67 11.2811 637.795 11.7512 636.623 12.4562C635.451 13.1613 634.747 14.3364 634.747 15.5115C634.747 16.9217 635.451 17.8617 636.857 18.3318C638.263 19.0369 640.607 19.742 643.655 20.447C647.171 21.1521 649.983 22.0922 652.327 23.0323C654.671 23.9723 656.546 25.3825 658.422 27.2627C660.297 28.9078 661 31.7281 661 35.0184ZM86.9613 19.0369C86.9613 22.7972 86.0238 25.8525 84.383 28.4378C82.7422 31.023 80.3982 33.1383 77.3511 34.5484C74.3039 35.9585 70.5535 36.6636 66.5688 36.6636H58.5993V49.3548H45.473V0.705076H66.5688C70.7879 0.705076 74.3039 1.41017 77.3511 2.8203C80.3982 4.23044 82.7422 6.34564 84.383 9.16591C86.2582 12.2212 86.9613 15.5115 86.9613 19.0369ZM73.8351 19.0369C73.8351 16.6866 73.1319 15.0415 71.7255 13.8664C70.3191 12.6913 68.444 11.9862 65.6312 11.9862H58.3649V26.3226H65.6312C68.2096 26.3226 70.3191 25.6175 71.7255 24.4424C73.1319 23.2673 73.8351 21.3871 73.8351 19.0369ZM129.153 39.2489V49.8249H92.3525V1.17511H128.215V11.7511H105.244V19.9769H123.527V30.318H105.244V39.2489H129.153ZM178.845 1.17511V49.8249H168.063L147.67 23.9724V49.8249H134.778V1.17511H145.561L165.953 27.0276V1.17511H178.845ZM262.056 38.7788V49.5898H229.475V0.940113H242.601V38.5438H262.056V38.7788ZM318.311 49.8249H304.716L301.2 40.424H281.745L278.229 49.8249H264.869L285.261 1.17511H298.153L318.311 49.8249ZM297.45 30.0829L291.59 14.5714L285.73 30.0829H297.45ZM359.331 35.0184C359.331 37.8387 358.628 40.659 356.987 43.0092C355.346 45.3594 353.237 47.2396 350.189 48.6498C347.142 50.0599 343.392 50.765 338.938 50.765C335.188 50.765 331.672 50.2949 328.156 49.3548C324.64 48.4147 321.827 47.0046 319.718 45.3594L326.75 36.8986C328.156 37.6037 329.562 38.0737 331.203 38.7788C334.016 39.7189 336.594 40.1889 339.173 40.1889C344.095 40.1889 346.673 38.7788 346.673 36.1936C346.673 34.7834 345.97 33.8433 344.564 33.1382C343.157 32.4332 340.814 31.7281 337.766 31.0231C334.25 30.318 331.438 29.3779 329.094 28.4378C326.75 27.4977 324.874 26.0875 322.999 24.2074C321.358 22.3272 320.421 19.5069 320.421 16.2166C320.421 13.1613 321.124 10.576 322.765 8.2258C324.406 5.87557 326.515 3.9954 329.562 2.58527C332.61 1.17513 336.36 0.470075 340.813 0.470075C343.861 0.470075 346.908 0.94012 349.721 1.64519C352.768 2.35026 355.112 3.52534 357.456 4.70046L350.189 13.3963C346.908 11.9862 343.626 11.2811 340.579 11.2811C338.001 11.2811 336.126 11.7512 334.954 12.4562C333.782 13.1613 333.078 14.3364 333.078 15.5115C333.078 16.9217 333.782 17.8617 335.188 18.3318C336.594 19.0369 338.938 19.742 341.985 20.447C345.501 21.1521 348.314 22.0922 350.658 23.0323C353.002 23.9723 354.877 25.3825 356.752 27.2627C358.393 28.9078 359.331 31.7281 359.331 35.0184ZM40.0819 25.3825C40.0819 39.2488 28.8308 50.765 14.767 50.765C9.14146 50.765 4.21915 48.8848 0 45.8295L8.43828 35.7235C10.3135 36.8986 12.423 37.6037 14.767 37.6037C21.3301 37.6037 26.7213 32.1982 26.7213 25.6175C26.7213 19.0369 21.3301 13.6313 14.767 13.6313C12.423 13.6313 10.3135 14.3364 8.43828 15.5115L0 5.40553C4.21915 2.35024 9.37586 0.470075 14.767 0.470075C28.8308 0.235052 40.0819 11.5161 40.0819 25.3825ZM215.88 35.7235L224.318 45.8295C220.099 48.8848 214.942 50.765 209.551 50.765C195.722 50.765 184.236 39.4839 184.236 25.3825C184.236 11.5161 195.487 0 209.551 0C215.177 0 220.099 1.8802 224.318 4.9355L215.88 15.0415C214.005 13.8664 211.895 13.1613 209.551 13.1613C202.988 13.1613 197.597 18.5668 197.597 25.1475C197.597 31.7281 202.988 37.1336 209.551 37.1336C211.895 37.6037 214.005 36.8986 215.88 35.7235ZM449.574 49.8249L439.26 34.7834C442.307 33.3733 444.417 31.2581 446.058 28.6728C447.699 26.0876 448.636 22.7973 448.636 19.2719C448.636 15.5115 447.699 12.4562 446.058 9.63595C444.417 6.81568 442.073 4.9355 439.026 3.29034C435.979 1.8802 432.228 1.17511 428.244 1.17511H407.148V49.8249H420.04V37.1336H426.134L434.807 49.8249H449.574ZM420.04 11.9862H427.54C430.119 11.9862 432.228 12.6913 433.635 13.8664C435.041 15.0415 435.744 16.9217 435.744 19.0369C435.744 21.3871 435.041 23.0323 433.635 24.2074C432.228 25.3825 430.353 26.0876 427.54 26.0876H420.04V11.9862ZM478.873 0.235037C492.703 0.235037 504.188 11.5161 504.188 25.6175C504.188 39.7189 492.937 51 478.873 51C465.044 51 453.559 39.7189 453.559 25.6175C453.559 11.5161 464.81 0.235037 478.873 0.235037ZM465.982 25.3825C465.982 32.4332 471.607 38.0737 478.639 38.0737C485.671 38.0737 491.296 32.4332 491.296 25.3825C491.296 18.3318 485.671 12.6913 478.639 12.6913C471.841 12.6913 465.982 18.3318 465.982 25.3825ZM533.254 0.235037C547.083 0.235037 558.568 11.5161 558.568 25.6175C558.568 39.7189 547.317 51 533.254 51C519.424 51 507.939 39.7189 507.939 25.6175C507.939 11.5161 519.424 0.235037 533.254 0.235037ZM520.596 25.3825C520.596 32.4332 526.222 38.0737 533.254 38.0737C540.285 38.0737 545.911 32.4332 545.911 25.3825C545.911 18.3318 540.285 12.6913 533.254 12.6913C526.222 12.6913 520.596 18.3318 520.596 25.3825ZM590.212 32.1982L574.742 1.17511H563.96V49.8249H575.445V28.4378L586.93 49.8249H593.728L605.213 28.4378V49.8249H616.699V1.17511H605.917L590.212 32.1982Z" fill="#7451EB"/>
</svg>
